<svg id="Layer_1" data-name="Layer 1" xmlns="http://www.w3.org/2000/svg" viewBox="0 0 4096 4096"><defs><style>.cls-1,.cls-5{fill:none;}.cls-2{fill:#6e6ef7;}.cls-2,.cls-3,.cls-4,.cls-5,.cls-6{stroke:#0f1011;stroke-linecap:round;stroke-linejoin:round;stroke-width:192px;}.cls-3{fill:#fff;}.cls-4{fill:#6abf63;}.cls-6{fill:#f76e6e;}</style></defs><rect class="cls-1" width="4096" height="4096"/><polyline class="cls-2" points="2712.99 896.21 2048 1285.98 1383.01 1664.07 718.02 1280.14 2048 512.28 3377.97 1280.14 2712.99 1664.07 2048 1285.98 1372.82 902.09"/><polygon class="cls-3" points="1383.01 1664.07 2048 1285.98 2042.9 2048 1383.01 2431.88 1383.01 1664.07"/><polygon class="cls-3" points="2048 2815.77 1383.01 2431.88 2042.9 2048 2712.91 2431.93 2048 2815.77"/><polygon class="cls-3" points="2048 1285.98 2042.9 2048 2712.91 2431.93 2712.99 1664.07 2048 1285.98"/><polygon class="cls-4" points="1383.01 1664.07 1383.01 2431.93 2048 2805.27 2048 3583.72 718.02 2815.86 718.02 1280.14 1383.01 1664.07"/><polygon class="cls-5" points="1383.01 2431.93 718.02 2047.91 718.02 2815.86 1383.01 3199.79 1383.01 2431.93"/><polygon class="cls-6" points="2712.99 1664.07 2712.99 2431.88 2048 2794.97 2048 3583.72 3377.97 2815.86 3377.97 1280.14 2712.99 1664.07"/><polygon class="cls-5" points="2712.99 2431.88 2712.99 3199.79 3377.97 2815.86 3377.98 2048 2712.99 2431.88"/></svg>